<mxfile host="65bd71144e">
    <diagram id="AMTHhipA4SZP9gR7CmpA" name="Page-1">
        <mxGraphModel dx="1530" dy="990" grid="1" gridSize="10" guides="1" tooltips="1" connect="1" arrows="1" fold="1" page="1" pageScale="1" pageWidth="850" pageHeight="1100" math="0" shadow="0">
            <root>
                <mxCell id="0"/>
                <mxCell id="1" parent="0"/>
                <mxCell id="46" value="" style="group" parent="1" vertex="1" connectable="0">
                    <mxGeometry x="80" y="160" width="360" height="470" as="geometry"/>
                </mxCell>
                <mxCell id="38" value="" style="rounded=0;whiteSpace=wrap;html=1;fillColor=#d5e8d4;strokeColor=#82b366;" parent="46" vertex="1">
                    <mxGeometry width="360" height="470" as="geometry"/>
                </mxCell>
                <mxCell id="37" value="Effect Parameters" style="shape=umlFrame;whiteSpace=wrap;html=1;pointerEvents=0;width=120;height=20;" parent="46" vertex="1">
                    <mxGeometry width="360" height="470" as="geometry"/>
                </mxCell>
                <mxCell id="10" value="" style="endArrow=none;html=1;strokeColor=none;" parent="1" edge="1">
                    <mxGeometry width="50" height="50" relative="1" as="geometry">
                        <mxPoint x="120" y="470" as="sourcePoint"/>
                        <mxPoint x="200" y="470" as="targetPoint"/>
                    </mxGeometry>
                </mxCell>
                <mxCell id="8" value="" style="edgeStyle=none;html=1;startArrow=classic;startFill=1;" parent="1" source="4" target="5" edge="1">
                    <mxGeometry relative="1" as="geometry"/>
                </mxCell>
                <mxCell id="25" value="" style="edgeStyle=none;jumpStyle=line;jumpSize=11;html=1;startArrow=classic;startFill=1;" parent="1" source="4" target="17" edge="1">
                    <mxGeometry relative="1" as="geometry"/>
                </mxCell>
                <mxCell id="4" value="Effect param 0" style="ellipse;whiteSpace=wrap;html=1;aspect=fixed;" parent="1" vertex="1">
                    <mxGeometry x="120" y="200" width="80" height="80" as="geometry"/>
                </mxCell>
                <mxCell id="24" value="" style="edgeStyle=none;jumpStyle=line;jumpSize=11;html=1;startArrow=classic;startFill=1;" parent="1" source="5" target="18" edge="1">
                    <mxGeometry relative="1" as="geometry"/>
                </mxCell>
                <mxCell id="5" value="Effect param 1" style="ellipse;whiteSpace=wrap;html=1;aspect=fixed;" parent="1" vertex="1">
                    <mxGeometry x="120" y="340" width="80" height="80" as="geometry"/>
                </mxCell>
                <mxCell id="23" value="" style="edgeStyle=none;jumpStyle=line;jumpSize=11;html=1;startArrow=classic;startFill=1;" parent="1" source="6" target="19" edge="1">
                    <mxGeometry relative="1" as="geometry"/>
                </mxCell>
                <mxCell id="6" value="Effect param n" style="ellipse;whiteSpace=wrap;html=1;aspect=fixed;" parent="1" vertex="1">
                    <mxGeometry x="120" y="530" width="80" height="80" as="geometry"/>
                </mxCell>
                <mxCell id="9" style="edgeStyle=none;html=1;jumpStyle=line;jumpSize=11;startArrow=classic;startFill=1;" parent="1" source="5" target="6" edge="1">
                    <mxGeometry relative="1" as="geometry"/>
                </mxCell>
                <mxCell id="11" value="" style="endArrow=classic;html=1;jumpStyle=line;jumpSize=11;startArrow=classic;startFill=1;" parent="1" edge="1">
                    <mxGeometry width="50" height="50" relative="1" as="geometry">
                        <mxPoint x="81" y="40" as="sourcePoint"/>
                        <mxPoint x="81" y="120" as="targetPoint"/>
                    </mxGeometry>
                </mxCell>
                <mxCell id="12" value="Encoder rotation click" style="edgeLabel;html=1;align=center;verticalAlign=middle;resizable=0;points=[];" parent="11" vertex="1" connectable="0">
                    <mxGeometry x="0.325" y="-1" relative="1" as="geometry">
                        <mxPoint y="-13" as="offset"/>
                    </mxGeometry>
                </mxCell>
                <mxCell id="13" value="" style="endArrow=classic;startArrow=classic;html=1;jumpStyle=line;jumpSize=11;" parent="1" edge="1">
                    <mxGeometry width="50" height="50" relative="1" as="geometry">
                        <mxPoint x="80" y="40" as="sourcePoint"/>
                        <mxPoint x="160" y="40" as="targetPoint"/>
                    </mxGeometry>
                </mxCell>
                <mxCell id="14" value="Encoder press" style="edgeLabel;html=1;align=center;verticalAlign=middle;resizable=0;points=[];" parent="13" vertex="1" connectable="0">
                    <mxGeometry x="-0.3429" y="2" relative="1" as="geometry">
                        <mxPoint x="14" y="-18" as="offset"/>
                    </mxGeometry>
                </mxCell>
                <mxCell id="17" value="Modify effect param 0 value" style="ellipse;whiteSpace=wrap;html=1;aspect=fixed;" parent="1" vertex="1">
                    <mxGeometry x="270" y="200" width="80" height="80" as="geometry"/>
                </mxCell>
                <mxCell id="18" value="Modify effect param 1 value" style="ellipse;whiteSpace=wrap;html=1;aspect=fixed;" parent="1" vertex="1">
                    <mxGeometry x="270" y="340" width="80" height="80" as="geometry"/>
                </mxCell>
                <mxCell id="19" value="Modify effect param n value" style="ellipse;whiteSpace=wrap;html=1;aspect=fixed;" parent="1" vertex="1">
                    <mxGeometry x="270" y="530" width="80" height="80" as="geometry"/>
                </mxCell>
                <mxCell id="31" value="" style="curved=1;endArrow=classic;html=1;jumpStyle=line;jumpSize=11;" parent="1" source="17" target="17" edge="1">
                    <mxGeometry width="50" height="50" relative="1" as="geometry">
                        <mxPoint x="351.72" y="240" as="sourcePoint"/>
                        <mxPoint x="340.0042712474632" y="211.71572875253685" as="targetPoint"/>
                        <Array as="points">
                            <mxPoint x="381.72" y="230"/>
                            <mxPoint x="381.72" y="200"/>
                            <mxPoint x="361.72" y="190"/>
                        </Array>
                    </mxGeometry>
                </mxCell>
                <mxCell id="32" value="Encoder rotation click" style="edgeLabel;html=1;align=center;verticalAlign=middle;resizable=0;points=[];" parent="31" vertex="1" connectable="0">
                    <mxGeometry x="-0.3536" y="2" relative="1" as="geometry">
                        <mxPoint x="-8" y="-45" as="offset"/>
                    </mxGeometry>
                </mxCell>
                <mxCell id="33" value="" style="curved=1;endArrow=classic;html=1;jumpStyle=line;jumpSize=11;" parent="1" source="18" target="18" edge="1">
                    <mxGeometry width="50" height="50" relative="1" as="geometry">
                        <mxPoint x="351.72" y="380" as="sourcePoint"/>
                        <mxPoint x="340.0042712474632" y="351.71572875253685" as="targetPoint"/>
                        <Array as="points">
                            <mxPoint x="381.72" y="370"/>
                            <mxPoint x="381.72" y="340"/>
                            <mxPoint x="361.72" y="330"/>
                        </Array>
                    </mxGeometry>
                </mxCell>
                <mxCell id="34" value="Encoder rotation click" style="edgeLabel;html=1;align=center;verticalAlign=middle;resizable=0;points=[];" parent="33" vertex="1" connectable="0">
                    <mxGeometry x="-0.3536" y="2" relative="1" as="geometry">
                        <mxPoint x="-8" y="-45" as="offset"/>
                    </mxGeometry>
                </mxCell>
                <mxCell id="35" value="" style="curved=1;endArrow=classic;html=1;jumpStyle=line;jumpSize=11;" parent="1" source="19" target="19" edge="1">
                    <mxGeometry width="50" height="50" relative="1" as="geometry">
                        <mxPoint x="351.72" y="570" as="sourcePoint"/>
                        <mxPoint x="340.0042712474632" y="541.7157287525368" as="targetPoint"/>
                        <Array as="points">
                            <mxPoint x="381.72" y="560"/>
                            <mxPoint x="381.72" y="530"/>
                            <mxPoint x="361.72" y="520"/>
                        </Array>
                    </mxGeometry>
                </mxCell>
                <mxCell id="36" value="Encoder rotation click" style="edgeLabel;html=1;align=center;verticalAlign=middle;resizable=0;points=[];" parent="35" vertex="1" connectable="0">
                    <mxGeometry x="-0.3536" y="2" relative="1" as="geometry">
                        <mxPoint x="-8" y="-45" as="offset"/>
                    </mxGeometry>
                </mxCell>
                <mxCell id="50" value="" style="group" parent="1" vertex="1" connectable="0">
                    <mxGeometry x="460" y="160" width="500" height="1060" as="geometry"/>
                </mxCell>
                <mxCell id="51" value="" style="rounded=0;whiteSpace=wrap;html=1;fillColor=#dae8fc;strokeColor=#6c8ebf;" parent="50" vertex="1">
                    <mxGeometry width="420" height="1060" as="geometry"/>
                </mxCell>
                <mxCell id="52" value="Color Palette" style="shape=umlFrame;whiteSpace=wrap;html=1;pointerEvents=0;width=120;height=20;" parent="50" vertex="1">
                    <mxGeometry width="420" height="1060" as="geometry"/>
                </mxCell>
                <mxCell id="60" value="Color n" style="ellipse;whiteSpace=wrap;html=1;aspect=fixed;" parent="50" vertex="1">
                    <mxGeometry x="40" y="840" width="80" height="80" as="geometry"/>
                </mxCell>
                <mxCell id="53" value="" style="endArrow=none;html=1;strokeColor=none;" parent="50" edge="1">
                    <mxGeometry width="50" height="50" relative="1" as="geometry">
                        <mxPoint x="40" y="700" as="sourcePoint"/>
                        <mxPoint x="120" y="700" as="targetPoint"/>
                    </mxGeometry>
                </mxCell>
                <mxCell id="61" style="edgeStyle=none;html=1;jumpStyle=line;jumpSize=11;startArrow=classic;startFill=1;" parent="50" source="58" target="60" edge="1">
                    <mxGeometry relative="1" as="geometry"/>
                </mxCell>
                <mxCell id="58" value="Color 1" style="ellipse;whiteSpace=wrap;html=1;aspect=fixed;" parent="50" vertex="1">
                    <mxGeometry x="40" y="480" width="80" height="80" as="geometry"/>
                </mxCell>
                <mxCell id="54" value="" style="edgeStyle=none;html=1;startArrow=classic;startFill=1;" parent="50" source="56" target="58" edge="1">
                    <mxGeometry relative="1" as="geometry"/>
                </mxCell>
                <mxCell id="56" value="Color 0" style="ellipse;whiteSpace=wrap;html=1;aspect=fixed;" parent="50" vertex="1">
                    <mxGeometry x="40" y="150" width="80" height="80" as="geometry"/>
                </mxCell>
                <mxCell id="117" value="" style="group" parent="50" vertex="1" connectable="0">
                    <mxGeometry x="170" y="70" width="210" height="300" as="geometry"/>
                </mxCell>
                <mxCell id="104" value="" style="rounded=0;whiteSpace=wrap;html=1;fillColor=#f5f5f5;strokeColor=#666666;fontColor=#333333;container=0;" parent="117" vertex="1">
                    <mxGeometry y="-40" width="210" height="320" as="geometry"/>
                </mxCell>
                <mxCell id="105" value="HSV Color Picker" style="shape=umlFrame;whiteSpace=wrap;html=1;pointerEvents=0;width=120;height=20;container=0;" parent="117" vertex="1">
                    <mxGeometry y="-40" width="210" height="320" as="geometry"/>
                </mxCell>
                <mxCell id="115" value="" style="edgeStyle=none;html=1;startArrow=classic;startFill=1;" parent="117" edge="1">
                    <mxGeometry relative="1" as="geometry">
                        <mxPoint x="46.66666666666667" y="95.99999999999999" as="targetPoint"/>
                    </mxGeometry>
                </mxCell>
                <mxCell id="121" value="Modify hue" style="ellipse;whiteSpace=wrap;html=1;aspect=fixed;" parent="117" vertex="1">
                    <mxGeometry x="90" y="20" width="60" height="60" as="geometry"/>
                </mxCell>
                <mxCell id="122" value="" style="curved=1;endArrow=classic;html=1;jumpStyle=line;jumpSize=11;" parent="117" source="121" target="121" edge="1">
                    <mxGeometry width="50" height="50" relative="1" as="geometry">
                        <mxPoint x="161.72000000000003" y="50" as="sourcePoint"/>
                        <mxPoint x="150.00427124746318" y="21.715728752536847" as="targetPoint"/>
                        <Array as="points">
                            <mxPoint x="191.72000000000003" y="40"/>
                            <mxPoint x="171.72000000000003"/>
                        </Array>
                    </mxGeometry>
                </mxCell>
                <mxCell id="123" value="Encoder rotation click" style="edgeLabel;html=1;align=center;verticalAlign=middle;resizable=0;points=[];" parent="122" vertex="1" connectable="0">
                    <mxGeometry x="-0.3536" y="2" relative="1" as="geometry">
                        <mxPoint x="-50" y="-41" as="offset"/>
                    </mxGeometry>
                </mxCell>
                <mxCell id="125" value="Modify hue" style="ellipse;whiteSpace=wrap;html=1;aspect=fixed;" parent="117" vertex="1">
                    <mxGeometry x="90" y="110" width="60" height="60" as="geometry"/>
                </mxCell>
                <mxCell id="126" value="" style="curved=1;endArrow=classic;html=1;jumpStyle=line;jumpSize=11;" parent="117" source="125" target="125" edge="1">
                    <mxGeometry width="50" height="50" relative="1" as="geometry">
                        <mxPoint x="161.72000000000003" y="140" as="sourcePoint"/>
                        <mxPoint x="150.00427124746318" y="111.71572875253685" as="targetPoint"/>
                        <Array as="points">
                            <mxPoint x="191.72000000000003" y="130"/>
                            <mxPoint x="171.72000000000003" y="90"/>
                        </Array>
                    </mxGeometry>
                </mxCell>
                <mxCell id="127" value="Encoder rotation click" style="edgeLabel;html=1;align=center;verticalAlign=middle;resizable=0;points=[];" parent="126" vertex="1" connectable="0">
                    <mxGeometry x="-0.3536" y="2" relative="1" as="geometry">
                        <mxPoint x="-50" y="-41" as="offset"/>
                    </mxGeometry>
                </mxCell>
                <mxCell id="128" value="Modify hue" style="ellipse;whiteSpace=wrap;html=1;aspect=fixed;" parent="117" vertex="1">
                    <mxGeometry x="90" y="200" width="60" height="60" as="geometry"/>
                </mxCell>
                <mxCell id="129" value="" style="curved=1;endArrow=classic;html=1;jumpStyle=line;jumpSize=11;" parent="117" source="128" target="128" edge="1">
                    <mxGeometry width="50" height="50" relative="1" as="geometry">
                        <mxPoint x="161.72000000000003" y="230" as="sourcePoint"/>
                        <mxPoint x="150.00427124746318" y="201.71572875253685" as="targetPoint"/>
                        <Array as="points">
                            <mxPoint x="191.72000000000003" y="220"/>
                            <mxPoint x="171.72000000000003" y="180"/>
                        </Array>
                    </mxGeometry>
                </mxCell>
                <mxCell id="130" value="Encoder rotation click" style="edgeLabel;html=1;align=center;verticalAlign=middle;resizable=0;points=[];" parent="129" vertex="1" connectable="0">
                    <mxGeometry x="-0.3536" y="2" relative="1" as="geometry">
                        <mxPoint x="-50" y="-41" as="offset"/>
                    </mxGeometry>
                </mxCell>
                <mxCell id="72" value="Val" style="ellipse;whiteSpace=wrap;html=1;aspect=fixed;" parent="117" vertex="1">
                    <mxGeometry x="20" y="210.00340425531914" width="40" height="40" as="geometry"/>
                </mxCell>
                <mxCell id="132" style="edgeStyle=none;html=1;startArrow=classic;startFill=1;" parent="117" source="72" target="128" edge="1">
                    <mxGeometry relative="1" as="geometry"/>
                </mxCell>
                <mxCell id="71" value="Sat" style="ellipse;whiteSpace=wrap;html=1;aspect=fixed;" parent="117" vertex="1">
                    <mxGeometry x="20" y="120.0027659574468" width="40" height="40" as="geometry"/>
                </mxCell>
                <mxCell id="99" style="edgeStyle=none;shape=connector;rounded=1;html=1;strokeColor=default;align=center;verticalAlign=middle;fontFamily=Helvetica;fontSize=11;fontColor=default;labelBackgroundColor=default;startArrow=classic;startFill=1;endArrow=classic;" parent="117" source="71" target="72" edge="1">
                    <mxGeometry relative="1" as="geometry"/>
                </mxCell>
                <mxCell id="131" style="edgeStyle=none;html=1;startArrow=classic;startFill=1;" parent="117" source="71" target="125" edge="1">
                    <mxGeometry relative="1" as="geometry"/>
                </mxCell>
                <mxCell id="98" style="edgeStyle=none;shape=connector;rounded=1;html=1;strokeColor=default;align=center;verticalAlign=middle;fontFamily=Helvetica;fontSize=11;fontColor=default;labelBackgroundColor=default;startArrow=classic;startFill=1;endArrow=classic;" parent="50" source="71" target="62" edge="1">
                    <mxGeometry relative="1" as="geometry"/>
                </mxCell>
                <mxCell id="124" value="" style="edgeStyle=none;html=1;startArrow=classic;startFill=1;" parent="50" source="62" target="121" edge="1">
                    <mxGeometry relative="1" as="geometry"/>
                </mxCell>
                <mxCell id="62" value="Hue" style="ellipse;whiteSpace=wrap;html=1;aspect=fixed;" parent="50" vertex="1">
                    <mxGeometry x="190" y="100.00212765957447" width="40" height="40" as="geometry"/>
                </mxCell>
                <mxCell id="120" style="edgeStyle=none;html=1;entryX=0;entryY=0.5;entryDx=0;entryDy=0;startArrow=block;startFill=1;fillColor=#dae8fc;strokeColor=#6c8ebf;endArrow=none;endFill=0;" parent="50" edge="1">
                    <mxGeometry relative="1" as="geometry">
                        <mxPoint x="120" y="200" as="sourcePoint"/>
                        <mxPoint x="170" y="200" as="targetPoint"/>
                    </mxGeometry>
                </mxCell>
                <mxCell id="134" value="" style="group" parent="50" vertex="1" connectable="0">
                    <mxGeometry x="170" y="400" width="210" height="300" as="geometry"/>
                </mxCell>
                <mxCell id="135" value="" style="rounded=0;whiteSpace=wrap;html=1;fillColor=#f5f5f5;strokeColor=#666666;fontColor=#333333;container=0;" parent="134" vertex="1">
                    <mxGeometry y="-40" width="210" height="320" as="geometry"/>
                </mxCell>
                <mxCell id="136" value="HSV Color Picker" style="shape=umlFrame;whiteSpace=wrap;html=1;pointerEvents=0;width=120;height=20;container=0;" parent="134" vertex="1">
                    <mxGeometry y="-40" width="210" height="320" as="geometry"/>
                </mxCell>
                <mxCell id="137" value="" style="edgeStyle=none;html=1;startArrow=classic;startFill=1;" parent="134" edge="1">
                    <mxGeometry relative="1" as="geometry">
                        <mxPoint x="46.66666666666667" y="95.99999999999999" as="targetPoint"/>
                    </mxGeometry>
                </mxCell>
                <mxCell id="138" value="Modify hue" style="ellipse;whiteSpace=wrap;html=1;aspect=fixed;" parent="134" vertex="1">
                    <mxGeometry x="90" y="20" width="60" height="60" as="geometry"/>
                </mxCell>
                <mxCell id="139" value="" style="curved=1;endArrow=classic;html=1;jumpStyle=line;jumpSize=11;" parent="134" source="138" target="138" edge="1">
                    <mxGeometry width="50" height="50" relative="1" as="geometry">
                        <mxPoint x="161.72000000000003" y="50" as="sourcePoint"/>
                        <mxPoint x="150.00427124746318" y="21.715728752536847" as="targetPoint"/>
                        <Array as="points">
                            <mxPoint x="191.72000000000003" y="40"/>
                            <mxPoint x="171.72000000000003"/>
                        </Array>
                    </mxGeometry>
                </mxCell>
                <mxCell id="140" value="Encoder rotation click" style="edgeLabel;html=1;align=center;verticalAlign=middle;resizable=0;points=[];" parent="139" vertex="1" connectable="0">
                    <mxGeometry x="-0.3536" y="2" relative="1" as="geometry">
                        <mxPoint x="-50" y="-41" as="offset"/>
                    </mxGeometry>
                </mxCell>
                <mxCell id="141" value="Modify hue" style="ellipse;whiteSpace=wrap;html=1;aspect=fixed;" parent="134" vertex="1">
                    <mxGeometry x="90" y="110" width="60" height="60" as="geometry"/>
                </mxCell>
                <mxCell id="142" value="" style="curved=1;endArrow=classic;html=1;jumpStyle=line;jumpSize=11;" parent="134" source="141" target="141" edge="1">
                    <mxGeometry width="50" height="50" relative="1" as="geometry">
                        <mxPoint x="161.72000000000003" y="140" as="sourcePoint"/>
                        <mxPoint x="150.00427124746318" y="111.71572875253685" as="targetPoint"/>
                        <Array as="points">
                            <mxPoint x="191.72000000000003" y="130"/>
                            <mxPoint x="171.72000000000003" y="90"/>
                        </Array>
                    </mxGeometry>
                </mxCell>
                <mxCell id="143" value="Encoder rotation click" style="edgeLabel;html=1;align=center;verticalAlign=middle;resizable=0;points=[];" parent="142" vertex="1" connectable="0">
                    <mxGeometry x="-0.3536" y="2" relative="1" as="geometry">
                        <mxPoint x="-50" y="-41" as="offset"/>
                    </mxGeometry>
                </mxCell>
                <mxCell id="144" value="Modify hue" style="ellipse;whiteSpace=wrap;html=1;aspect=fixed;" parent="134" vertex="1">
                    <mxGeometry x="90" y="200" width="60" height="60" as="geometry"/>
                </mxCell>
                <mxCell id="145" value="" style="curved=1;endArrow=classic;html=1;jumpStyle=line;jumpSize=11;" parent="134" source="144" target="144" edge="1">
                    <mxGeometry width="50" height="50" relative="1" as="geometry">
                        <mxPoint x="161.72000000000003" y="230" as="sourcePoint"/>
                        <mxPoint x="150.00427124746318" y="201.71572875253685" as="targetPoint"/>
                        <Array as="points">
                            <mxPoint x="191.72000000000003" y="220"/>
                            <mxPoint x="171.72000000000003" y="180"/>
                        </Array>
                    </mxGeometry>
                </mxCell>
                <mxCell id="146" value="Encoder rotation click" style="edgeLabel;html=1;align=center;verticalAlign=middle;resizable=0;points=[];" parent="145" vertex="1" connectable="0">
                    <mxGeometry x="-0.3536" y="2" relative="1" as="geometry">
                        <mxPoint x="-50" y="-41" as="offset"/>
                    </mxGeometry>
                </mxCell>
                <mxCell id="147" value="Val" style="ellipse;whiteSpace=wrap;html=1;aspect=fixed;" parent="134" vertex="1">
                    <mxGeometry x="20" y="210.00340425531914" width="40" height="40" as="geometry"/>
                </mxCell>
                <mxCell id="148" style="edgeStyle=none;html=1;startArrow=classic;startFill=1;" parent="134" source="147" target="144" edge="1">
                    <mxGeometry relative="1" as="geometry"/>
                </mxCell>
                <mxCell id="149" value="Sat" style="ellipse;whiteSpace=wrap;html=1;aspect=fixed;" parent="134" vertex="1">
                    <mxGeometry x="20" y="120.0027659574468" width="40" height="40" as="geometry"/>
                </mxCell>
                <mxCell id="150" style="edgeStyle=none;shape=connector;rounded=1;html=1;strokeColor=default;align=center;verticalAlign=middle;fontFamily=Helvetica;fontSize=11;fontColor=default;labelBackgroundColor=default;startArrow=classic;startFill=1;endArrow=classic;" parent="134" source="149" target="147" edge="1">
                    <mxGeometry relative="1" as="geometry"/>
                </mxCell>
                <mxCell id="151" style="edgeStyle=none;html=1;startArrow=classic;startFill=1;" parent="134" source="149" target="141" edge="1">
                    <mxGeometry relative="1" as="geometry"/>
                </mxCell>
                <mxCell id="152" style="edgeStyle=none;shape=connector;rounded=1;html=1;strokeColor=default;align=center;verticalAlign=middle;fontFamily=Helvetica;fontSize=11;fontColor=default;labelBackgroundColor=default;startArrow=classic;startFill=1;endArrow=classic;" parent="50" source="149" target="154" edge="1">
                    <mxGeometry relative="1" as="geometry"/>
                </mxCell>
                <mxCell id="153" value="" style="edgeStyle=none;html=1;startArrow=classic;startFill=1;" parent="50" source="154" target="138" edge="1">
                    <mxGeometry relative="1" as="geometry"/>
                </mxCell>
                <mxCell id="154" value="Hue" style="ellipse;whiteSpace=wrap;html=1;aspect=fixed;" parent="50" vertex="1">
                    <mxGeometry x="190" y="430.0021276595744" width="40" height="40" as="geometry"/>
                </mxCell>
                <mxCell id="156" value="" style="group" parent="50" vertex="1" connectable="0">
                    <mxGeometry x="170" y="760" width="210" height="300" as="geometry"/>
                </mxCell>
                <mxCell id="157" value="" style="rounded=0;whiteSpace=wrap;html=1;fillColor=#f5f5f5;strokeColor=#666666;fontColor=#333333;container=0;" parent="156" vertex="1">
                    <mxGeometry y="-40" width="210" height="320" as="geometry"/>
                </mxCell>
                <mxCell id="158" value="HSV Color Picker" style="shape=umlFrame;whiteSpace=wrap;html=1;pointerEvents=0;width=120;height=20;container=0;" parent="156" vertex="1">
                    <mxGeometry y="-40" width="210" height="320" as="geometry"/>
                </mxCell>
                <mxCell id="159" value="" style="edgeStyle=none;html=1;startArrow=classic;startFill=1;" parent="156" edge="1">
                    <mxGeometry relative="1" as="geometry">
                        <mxPoint x="46.66666666666667" y="95.99999999999999" as="targetPoint"/>
                    </mxGeometry>
                </mxCell>
                <mxCell id="160" value="Modify hue" style="ellipse;whiteSpace=wrap;html=1;aspect=fixed;" parent="156" vertex="1">
                    <mxGeometry x="90" y="20" width="60" height="60" as="geometry"/>
                </mxCell>
                <mxCell id="161" value="" style="curved=1;endArrow=classic;html=1;jumpStyle=line;jumpSize=11;" parent="156" source="160" target="160" edge="1">
                    <mxGeometry width="50" height="50" relative="1" as="geometry">
                        <mxPoint x="161.72000000000003" y="50" as="sourcePoint"/>
                        <mxPoint x="150.00427124746318" y="21.715728752536847" as="targetPoint"/>
                        <Array as="points">
                            <mxPoint x="191.72000000000003" y="40"/>
                            <mxPoint x="171.72000000000003"/>
                        </Array>
                    </mxGeometry>
                </mxCell>
                <mxCell id="162" value="Encoder rotation click" style="edgeLabel;html=1;align=center;verticalAlign=middle;resizable=0;points=[];" parent="161" vertex="1" connectable="0">
                    <mxGeometry x="-0.3536" y="2" relative="1" as="geometry">
                        <mxPoint x="-50" y="-41" as="offset"/>
                    </mxGeometry>
                </mxCell>
                <mxCell id="163" value="Modify hue" style="ellipse;whiteSpace=wrap;html=1;aspect=fixed;" parent="156" vertex="1">
                    <mxGeometry x="90" y="110" width="60" height="60" as="geometry"/>
                </mxCell>
                <mxCell id="164" value="" style="curved=1;endArrow=classic;html=1;jumpStyle=line;jumpSize=11;" parent="156" source="163" target="163" edge="1">
                    <mxGeometry width="50" height="50" relative="1" as="geometry">
                        <mxPoint x="161.72000000000003" y="140" as="sourcePoint"/>
                        <mxPoint x="150.00427124746318" y="111.71572875253685" as="targetPoint"/>
                        <Array as="points">
                            <mxPoint x="191.72000000000003" y="130"/>
                            <mxPoint x="171.72000000000003" y="90"/>
                        </Array>
                    </mxGeometry>
                </mxCell>
                <mxCell id="165" value="Encoder rotation click" style="edgeLabel;html=1;align=center;verticalAlign=middle;resizable=0;points=[];" parent="164" vertex="1" connectable="0">
                    <mxGeometry x="-0.3536" y="2" relative="1" as="geometry">
                        <mxPoint x="-50" y="-41" as="offset"/>
                    </mxGeometry>
                </mxCell>
                <mxCell id="166" value="Modify hue" style="ellipse;whiteSpace=wrap;html=1;aspect=fixed;" parent="156" vertex="1">
                    <mxGeometry x="90" y="200" width="60" height="60" as="geometry"/>
                </mxCell>
                <mxCell id="167" value="" style="curved=1;endArrow=classic;html=1;jumpStyle=line;jumpSize=11;" parent="156" source="166" target="166" edge="1">
                    <mxGeometry width="50" height="50" relative="1" as="geometry">
                        <mxPoint x="161.72000000000003" y="230" as="sourcePoint"/>
                        <mxPoint x="150.00427124746318" y="201.71572875253685" as="targetPoint"/>
                        <Array as="points">
                            <mxPoint x="191.72000000000003" y="220"/>
                            <mxPoint x="171.72000000000003" y="180"/>
                        </Array>
                    </mxGeometry>
                </mxCell>
                <mxCell id="168" value="Encoder rotation click" style="edgeLabel;html=1;align=center;verticalAlign=middle;resizable=0;points=[];" parent="167" vertex="1" connectable="0">
                    <mxGeometry x="-0.3536" y="2" relative="1" as="geometry">
                        <mxPoint x="-50" y="-41" as="offset"/>
                    </mxGeometry>
                </mxCell>
                <mxCell id="169" value="Val" style="ellipse;whiteSpace=wrap;html=1;aspect=fixed;" parent="156" vertex="1">
                    <mxGeometry x="20" y="210.00340425531914" width="40" height="40" as="geometry"/>
                </mxCell>
                <mxCell id="170" style="edgeStyle=none;html=1;startArrow=classic;startFill=1;" parent="156" source="169" target="166" edge="1">
                    <mxGeometry relative="1" as="geometry"/>
                </mxCell>
                <mxCell id="171" value="Sat" style="ellipse;whiteSpace=wrap;html=1;aspect=fixed;" parent="156" vertex="1">
                    <mxGeometry x="20" y="120.0027659574468" width="40" height="40" as="geometry"/>
                </mxCell>
                <mxCell id="172" style="edgeStyle=none;shape=connector;rounded=1;html=1;strokeColor=default;align=center;verticalAlign=middle;fontFamily=Helvetica;fontSize=11;fontColor=default;labelBackgroundColor=default;startArrow=classic;startFill=1;endArrow=classic;" parent="156" source="171" target="169" edge="1">
                    <mxGeometry relative="1" as="geometry"/>
                </mxCell>
                <mxCell id="173" style="edgeStyle=none;html=1;startArrow=classic;startFill=1;" parent="156" source="171" target="163" edge="1">
                    <mxGeometry relative="1" as="geometry"/>
                </mxCell>
                <mxCell id="174" style="edgeStyle=none;shape=connector;rounded=1;html=1;strokeColor=default;align=center;verticalAlign=middle;fontFamily=Helvetica;fontSize=11;fontColor=default;labelBackgroundColor=default;startArrow=classic;startFill=1;endArrow=classic;" parent="50" source="171" target="176" edge="1">
                    <mxGeometry relative="1" as="geometry"/>
                </mxCell>
                <mxCell id="175" value="" style="edgeStyle=none;html=1;startArrow=classic;startFill=1;" parent="50" source="176" target="160" edge="1">
                    <mxGeometry relative="1" as="geometry"/>
                </mxCell>
                <mxCell id="176" value="Hue" style="ellipse;whiteSpace=wrap;html=1;aspect=fixed;" parent="50" vertex="1">
                    <mxGeometry x="190" y="790.0021276595744" width="40" height="40" as="geometry"/>
                </mxCell>
                <mxCell id="178" style="edgeStyle=none;html=1;entryX=0;entryY=0.5;entryDx=0;entryDy=0;startArrow=none;startFill=0;fillColor=#dae8fc;strokeColor=#000000;endArrow=classic;endFill=1;" parent="50" edge="1">
                    <mxGeometry relative="1" as="geometry">
                        <mxPoint x="120" y="180" as="sourcePoint"/>
                        <mxPoint x="170" y="180" as="targetPoint"/>
                    </mxGeometry>
                </mxCell>
                <mxCell id="179" style="edgeStyle=none;html=1;entryX=0;entryY=0.5;entryDx=0;entryDy=0;startArrow=block;startFill=1;fillColor=#dae8fc;strokeColor=#6c8ebf;endArrow=none;endFill=0;" parent="50" edge="1">
                    <mxGeometry relative="1" as="geometry">
                        <mxPoint x="120" y="529.79" as="sourcePoint"/>
                        <mxPoint x="170" y="529.79" as="targetPoint"/>
                    </mxGeometry>
                </mxCell>
                <mxCell id="180" style="edgeStyle=none;html=1;entryX=0;entryY=0.5;entryDx=0;entryDy=0;startArrow=none;startFill=0;fillColor=#dae8fc;strokeColor=#000000;endArrow=classic;endFill=1;" parent="50" edge="1">
                    <mxGeometry relative="1" as="geometry">
                        <mxPoint x="120" y="509.78999999999996" as="sourcePoint"/>
                        <mxPoint x="170" y="509.78999999999996" as="targetPoint"/>
                    </mxGeometry>
                </mxCell>
                <mxCell id="181" style="edgeStyle=none;html=1;entryX=0;entryY=0.5;entryDx=0;entryDy=0;startArrow=block;startFill=1;fillColor=#dae8fc;strokeColor=#6c8ebf;endArrow=none;endFill=0;" parent="50" edge="1">
                    <mxGeometry relative="1" as="geometry">
                        <mxPoint x="120" y="889.79" as="sourcePoint"/>
                        <mxPoint x="170" y="889.79" as="targetPoint"/>
                    </mxGeometry>
                </mxCell>
                <mxCell id="182" style="edgeStyle=none;html=1;entryX=0;entryY=0.5;entryDx=0;entryDy=0;startArrow=none;startFill=0;fillColor=#dae8fc;strokeColor=#000000;endArrow=classic;endFill=1;" parent="50" edge="1">
                    <mxGeometry relative="1" as="geometry">
                        <mxPoint x="120" y="869.79" as="sourcePoint"/>
                        <mxPoint x="170" y="869.79" as="targetPoint"/>
                    </mxGeometry>
                </mxCell>
                <mxCell id="100" value="" style="endArrow=classic;startArrow=classic;html=1;jumpStyle=line;jumpSize=11;fillColor=#dae8fc;strokeColor=#6c8ebf;" parent="1" edge="1">
                    <mxGeometry width="50" height="50" relative="1" as="geometry">
                        <mxPoint x="200" y="40" as="sourcePoint"/>
                        <mxPoint x="280" y="40" as="targetPoint"/>
                    </mxGeometry>
                </mxCell>
                <mxCell id="101" value="Back button (any arrow angle)" style="edgeLabel;html=1;align=center;verticalAlign=middle;resizable=0;points=[];" parent="100" vertex="1" connectable="0">
                    <mxGeometry x="-0.3429" y="2" relative="1" as="geometry">
                        <mxPoint x="14" y="-18" as="offset"/>
                    </mxGeometry>
                </mxCell>
                <mxCell id="264" value="" style="group" parent="1" vertex="1" connectable="0">
                    <mxGeometry x="900" y="160" width="450" height="1060" as="geometry"/>
                </mxCell>
                <mxCell id="263" value="" style="rounded=0;whiteSpace=wrap;html=1;fillColor=#ffe6cc;strokeColor=#d79b00;" parent="264" vertex="1">
                    <mxGeometry width="440" height="500" as="geometry"/>
                </mxCell>
                <mxCell id="262" value="Modulation Matrix" style="shape=umlFrame;whiteSpace=wrap;html=1;pointerEvents=0;width=120;height=20;" parent="264" vertex="1">
                    <mxGeometry width="440" height="500" as="geometry"/>
                </mxCell>
                <mxCell id="301" value="" style="edgeStyle=none;html=1;startArrow=classic;startFill=1;" parent="264" source="267" target="299" edge="1">
                    <mxGeometry relative="1" as="geometry"/>
                </mxCell>
                <mxCell id="267" value="CV input 0" style="ellipse;whiteSpace=wrap;html=1;aspect=fixed;" parent="264" vertex="1">
                    <mxGeometry x="38.64" y="50" width="80" height="80" as="geometry"/>
                </mxCell>
                <mxCell id="271" value="Destination 0" style="ellipse;whiteSpace=wrap;html=1;aspect=fixed;" parent="264" vertex="1">
                    <mxGeometry x="168.64" y="50" width="80" height="80" as="geometry"/>
                </mxCell>
                <mxCell id="277" value="&lt;span style=&quot;color: rgb(0, 0, 0);&quot;&gt;M&lt;sub&gt;i&lt;/sub&gt;==&amp;gt;D&lt;sub&gt;j&lt;/sub&gt; amount&lt;/span&gt;" style="ellipse;whiteSpace=wrap;html=1;aspect=fixed;" parent="264" vertex="1">
                    <mxGeometry x="298.64" y="190" width="80" height="80" as="geometry"/>
                </mxCell>
                <mxCell id="280" value="" style="curved=1;endArrow=classic;html=1;jumpStyle=line;jumpSize=11;" parent="264" source="277" target="277" edge="1">
                    <mxGeometry width="50" height="50" relative="1" as="geometry">
                        <mxPoint x="379.64" y="224" as="sourcePoint"/>
                        <mxPoint x="368.64" y="202" as="targetPoint"/>
                        <Array as="points">
                            <mxPoint x="411.36" y="220"/>
                            <mxPoint x="411.36" y="190"/>
                            <mxPoint x="391.36" y="180"/>
                        </Array>
                    </mxGeometry>
                </mxCell>
                <mxCell id="281" value="Encoder rotation click" style="edgeLabel;html=1;align=center;verticalAlign=middle;resizable=0;points=[];" parent="280" vertex="1" connectable="0">
                    <mxGeometry x="-0.3536" y="2" relative="1" as="geometry">
                        <mxPoint x="-34" y="-45" as="offset"/>
                    </mxGeometry>
                </mxCell>
                <mxCell id="305" value="" style="edgeStyle=none;html=1;startArrow=classic;startFill=1;" parent="264" source="284" target="271" edge="1">
                    <mxGeometry relative="1" as="geometry"/>
                </mxCell>
                <mxCell id="307" value="" style="endArrow=none;html=1;strokeColor=none;" parent="264" edge="1">
                    <mxGeometry width="50" height="50" relative="1" as="geometry">
                        <mxPoint x="168.63999999999987" y="330" as="sourcePoint"/>
                        <mxPoint x="248.63999999999987" y="330" as="targetPoint"/>
                    </mxGeometry>
                </mxCell>
                <mxCell id="284" value="Destination 1" style="ellipse;whiteSpace=wrap;html=1;aspect=fixed;" parent="264" vertex="1">
                    <mxGeometry x="168.64" y="190" width="80" height="80" as="geometry"/>
                </mxCell>
                <mxCell id="306" style="edgeStyle=none;html=1;startArrow=classic;startFill=1;jumpStyle=line;jumpSize=11;" parent="264" source="286" target="284" edge="1">
                    <mxGeometry relative="1" as="geometry"/>
                </mxCell>
                <mxCell id="286" value="Destination m" style="ellipse;whiteSpace=wrap;html=1;aspect=fixed;" parent="264" vertex="1">
                    <mxGeometry x="168.63999999999987" y="400" width="80" height="80" as="geometry"/>
                </mxCell>
                <mxCell id="299" value="CV input 1" style="ellipse;whiteSpace=wrap;html=1;aspect=fixed;" parent="264" vertex="1">
                    <mxGeometry x="38.639999999999986" y="190" width="80" height="80" as="geometry"/>
                </mxCell>
                <mxCell id="300" value="CV input n" style="ellipse;whiteSpace=wrap;html=1;aspect=fixed;" parent="264" vertex="1">
                    <mxGeometry x="38.639999999999986" y="400" width="80" height="80" as="geometry"/>
                </mxCell>
                <mxCell id="303" value="" style="verticalLabelPosition=bottom;shadow=0;dashed=0;align=center;html=1;verticalAlign=top;strokeWidth=1;shape=mxgraph.mockup.forms.splitter;strokeColor=#999999;direction=north;" parent="264" vertex="1">
                    <mxGeometry x="140" y="50" width="10" height="420" as="geometry"/>
                </mxCell>
                <mxCell id="304" value="" style="endArrow=none;html=1;strokeColor=none;" parent="264" edge="1">
                    <mxGeometry width="50" height="50" relative="1" as="geometry">
                        <mxPoint x="38.64" y="330" as="sourcePoint"/>
                        <mxPoint x="118.64" y="330" as="targetPoint"/>
                    </mxGeometry>
                </mxCell>
                <mxCell id="302" value="" style="edgeStyle=none;html=1;startArrow=classic;startFill=1;jumpStyle=line;jumpSize=11;" parent="264" source="299" target="300" edge="1">
                    <mxGeometry relative="1" as="geometry"/>
                </mxCell>
                <mxCell id="308" value="" style="verticalLabelPosition=bottom;shadow=0;dashed=0;align=center;html=1;verticalAlign=top;strokeWidth=1;shape=mxgraph.mockup.forms.splitter;strokeColor=#999999;direction=north;" parent="264" vertex="1">
                    <mxGeometry x="270" y="55" width="10" height="415" as="geometry"/>
                </mxCell>
                <mxCell id="309" value="" style="endArrow=classic;startArrow=none;html=1;jumpStyle=line;jumpSize=11;startFill=0;" parent="264" edge="1">
                    <mxGeometry width="50" height="50" relative="1" as="geometry">
                        <mxPoint x="112.32" y="29.999999999999996" as="sourcePoint"/>
                        <mxPoint x="177.32" y="30" as="targetPoint"/>
                    </mxGeometry>
                </mxCell>
                <mxCell id="311" value="" style="endArrow=none;startArrow=classic;html=1;jumpStyle=line;jumpSize=11;startFill=1;fillColor=#dae8fc;strokeColor=#6c8ebf;endFill=0;" parent="264" edge="1">
                    <mxGeometry width="50" height="50" relative="1" as="geometry">
                        <mxPoint x="112.68" y="41" as="sourcePoint"/>
                        <mxPoint x="177.68" y="40.870000000000005" as="targetPoint"/>
                    </mxGeometry>
                </mxCell>
                <mxCell id="314" value="" style="endArrow=classic;startArrow=classic;html=1;jumpStyle=line;jumpSize=11;startFill=1;" parent="264" edge="1">
                    <mxGeometry width="50" height="50" relative="1" as="geometry">
                        <mxPoint x="242.31999999999994" y="30" as="sourcePoint"/>
                        <mxPoint x="307.31999999999994" y="30" as="targetPoint"/>
                    </mxGeometry>
                </mxCell>
                <mxCell id="315" value="" style="endArrow=none;startArrow=classic;html=1;jumpStyle=line;jumpSize=11;startFill=1;fillColor=#dae8fc;strokeColor=#6c8ebf;endFill=0;" parent="264" edge="1">
                    <mxGeometry width="50" height="50" relative="1" as="geometry">
                        <mxPoint x="242.68000000000006" y="41" as="sourcePoint"/>
                        <mxPoint x="307.68000000000006" y="40.870000000000005" as="targetPoint"/>
                    </mxGeometry>
                </mxCell>
                <mxCell id="265" value="" style="endArrow=classic;startArrow=classic;html=1;jumpStyle=line;jumpSize=11;fillColor=#ffe6cc;strokeColor=#d79b00;" parent="1" edge="1">
                    <mxGeometry width="50" height="50" relative="1" as="geometry">
                        <mxPoint x="200" y="90" as="sourcePoint"/>
                        <mxPoint x="280" y="90" as="targetPoint"/>
                    </mxGeometry>
                </mxCell>
                <mxCell id="266" value="Mod button (any arrow angle)" style="edgeLabel;html=1;align=center;verticalAlign=middle;resizable=0;points=[];" parent="265" vertex="1" connectable="0">
                    <mxGeometry x="-0.3429" y="2" relative="1" as="geometry">
                        <mxPoint x="14" y="-18" as="offset"/>
                    </mxGeometry>
                </mxCell>
                <mxCell id="296" value="Note: Only one destination per source will be supported at initial release." style="shape=note;whiteSpace=wrap;html=1;backgroundOutline=1;darkOpacity=0.05;" parent="1" vertex="1">
                    <mxGeometry x="1350" y="270" width="170" height="100" as="geometry"/>
                </mxCell>
                <mxCell id="297" value="Note: Discrete/continuous destinations will need to be managed separately if some inputs are dedicated to be gate-only." style="shape=note;whiteSpace=wrap;html=1;backgroundOutline=1;darkOpacity=0.05;" parent="1" vertex="1">
                    <mxGeometry x="1350" y="160" width="260" height="100" as="geometry"/>
                </mxCell>
                <mxCell id="316" style="edgeStyle=none;html=1;entryX=0.75;entryY=0;entryDx=0;entryDy=0;exitX=0.333;exitY=0;exitDx=0;exitDy=0;rounded=0;curved=1;fillColor=#dae8fc;strokeColor=#6c8ebf;startArrow=classic;startFill=1;exitPerimeter=0;" edge="1" parent="1" source="52" target="38">
                    <mxGeometry relative="1" as="geometry">
                        <mxPoint x="640" y="50" as="targetPoint"/>
                        <Array as="points">
                            <mxPoint x="450" y="100"/>
                        </Array>
                    </mxGeometry>
                </mxCell>
                <mxCell id="317" style="edgeStyle=none;html=1;rounded=0;curved=1;fillColor=#dae8fc;strokeColor=#6c8ebf;startArrow=none;startFill=0;entryX=0.443;entryY=0;entryDx=0;entryDy=0;entryPerimeter=0;" edge="1" parent="1" target="37">
                    <mxGeometry relative="1" as="geometry">
                        <mxPoint x="240" y="130" as="targetPoint"/>
                        <mxPoint x="1240" y="160" as="sourcePoint"/>
                        <Array as="points">
                            <mxPoint x="760" y="-60"/>
                        </Array>
                    </mxGeometry>
                </mxCell>
                <mxCell id="318" style="edgeStyle=none;html=1;entryX=0.75;entryY=0;entryDx=0;entryDy=0;exitX=0.32;exitY=-0.001;exitDx=0;exitDy=0;rounded=0;curved=1;fillColor=#ffe6cc;strokeColor=#d79b00;startArrow=classic;startFill=1;exitPerimeter=0;endArrow=none;endFill=0;" edge="1" parent="1" source="263">
                    <mxGeometry relative="1" as="geometry">
                        <mxPoint x="300" y="160" as="targetPoint"/>
                        <mxPoint x="550" y="160" as="sourcePoint"/>
                        <Array as="points">
                            <mxPoint x="700" y="10"/>
                        </Array>
                    </mxGeometry>
                </mxCell>
            </root>
        </mxGraphModel>
    </diagram>
</mxfile>